<?xml version="1.0" standalone="no"?>
<!DOCTYPE svg PUBLIC "-//W3C//DTD SVG 20010904//EN"
 "http://www.w3.org/TR/2001/REC-SVG-20010904/DTD/svg10.dtd">
<svg version="1.0" xmlns="http://www.w3.org/2000/svg"
 width="512.000000pt" height="274.000000pt" viewBox="0 0 512.000000 274.000000"
 preserveAspectRatio="xMidYMid meet">
<metadata>
Created by potrace 1.16, written by Peter Selinger 2001-2019
</metadata>
<g transform="translate(0.000000,274.000000) scale(0.100000,-0.100000)"
fill="#000000" stroke="none">
<path d="M2536 2718 c-3 -13 -6 -40 -6 -60 0 -67 -32 -118 -126 -203 -170
-154 -167 -150 -161 -209 16 -141 26 -215 35 -256 6 -25 16 -72 22 -105 7 -33
29 -113 51 -178 50 -151 53 -246 13 -365 -24 -70 -26 -87 -21 -182 6 -116 19
-181 73 -375 34 -124 35 -133 25 -200 -11 -70 -6 -121 29 -260 5 -22 10 -90
10 -152 0 -104 2 -113 22 -127 29 -20 87 -20 116 0 20 14 22 23 22 122 0 59 6
132 14 162 32 129 39 185 29 252 -9 68 -5 95 41 263 63 228 72 378 31 510 -39
126 -33 216 28 390 36 102 41 126 88 415 22 134 22 134 -64 214 -42 39 -100
92 -130 118 -44 39 -56 56 -70 105 -9 32 -18 76 -20 98 -2 32 -6 41 -23 43
-15 2 -23 -4 -28 -20z m138 -324 c53 -59 99 -117 102 -130 6 -25 -27 -179 -50
-235 -20 -47 -59 -81 -87 -77 -34 5 -34 29 0 100 17 34 31 76 31 93 0 46 -40
117 -78 139 -66 38 -144 -15 -159 -108 -6 -41 20 -127 47 -151 11 -10 20 -31
20 -47 0 -23 -4 -28 -23 -28 -50 0 -88 69 -118 213 -17 83 -18 91 -2 120 23
45 185 217 204 217 9 0 59 -48 113 -106z"/>
<path d="M955 2050 c-96 -50 -93 -48 -70 -65 16 -13 40 -15 142 -9 135 8 146
5 253 -65 30 -19 77 -47 104 -61 52 -27 56 -32 76 -95 20 -65 34 -75 108 -75
l66 0 50 -53 c64 -66 118 -107 141 -107 41 0 155 -110 174 -168 12 -35 11 -45
-15 -108 -29 -72 -34 -110 -22 -184 4 -27 4 -37 -1 -25 -5 11 -23 34 -41 50
-29 28 -36 30 -103 29 -119 -2 -167 -35 -261 -183 -66 -102 -186 -262 -246
-326 -26 -27 -57 -66 -68 -86 -12 -20 -41 -56 -65 -80 -23 -24 -53 -58 -67
-74 -22 -27 -49 -45 -135 -89 -15 -8 -35 -23 -46 -35 -23 -25 -131 -99 -150
-103 -8 -2 -18 -8 -24 -15 -11 -13 -142 -43 -186 -43 -34 0 -59 -27 -38 -41
20 -12 159 -11 200 2 33 11 95 39 248 113 41 20 79 36 86 36 6 0 28 18 49 40
l39 41 17 -28 c9 -15 25 -35 34 -43 26 -20 142 -19 183 3 69 36 133 109 133
151 0 8 -15 26 -34 38 -44 30 -36 52 31 82 69 33 177 118 203 163 12 21 23 62
27 99 4 47 10 64 21 64 15 0 63 -47 108 -105 l26 -34 -22 -58 c-33 -85 -50
-178 -50 -264 0 -49 -7 -99 -20 -139 -21 -67 -25 -116 -11 -139 17 -27 273
-41 306 -17 16 12 21 11 34 -1 12 -13 27 -14 80 -7 36 5 95 9 131 10 36 1 70
2 76 3 24 2 24 35 2 70 -26 40 -48 86 -71 146 -8 22 -25 65 -37 96 -12 31 -59
107 -105 169 -46 62 -85 124 -88 138 -3 17 4 38 23 64 29 40 64 125 96 233 15
48 18 95 17 240 0 189 -12 260 -54 329 -10 17 -23 41 -29 54 -5 13 -40 54 -77
92 -80 80 -110 92 -203 78 -56 -9 -66 -8 -89 10 -22 16 -26 27 -26 68 0 61 -6
71 -64 96 -57 25 -145 27 -188 5 -30 -16 -33 -16 -90 12 -96 47 -258 97 -388
119 -44 7 -56 5 -100 -18z m1130 -1606 c20 -30 67 -92 105 -136 38 -45 77 -96
86 -114 17 -32 17 -34 -1 -55 -30 -33 -89 -59 -137 -60 -44 -1 -192 44 -216
65 -10 10 -9 22 4 61 15 50 29 86 44 115 4 8 15 41 24 73 24 84 34 107 45 107
6 0 26 -25 46 -56z"/>
<path d="M4015 2059 c-163 -44 -193 -53 -256 -76 -36 -13 -83 -32 -104 -43
-35 -18 -40 -18 -68 -3 -42 21 -131 19 -187 -5 -64 -27 -75 -43 -60 -86 9 -29
8 -39 -5 -59 -21 -32 -51 -39 -114 -27 -28 5 -56 8 -63 6 -7 -3 -26 -7 -41
-11 -70 -15 -201 -183 -238 -307 -17 -57 -21 -98 -23 -231 -1 -165 5 -210 46
-332 23 -69 63 -152 85 -177 23 -26 2 -75 -78 -175 -75 -95 -93 -127 -135
-243 -15 -41 -43 -105 -63 -142 -50 -93 -44 -102 80 -106 81 -4 134 -4 207 -3
9 0 47 -2 84 -5 36 -3 104 -1 149 4 116 14 123 28 81 152 -8 25 -18 101 -23
170 -8 134 -16 175 -47 258 l-21 53 61 64 c33 36 66 65 73 65 9 0 16 -20 20
-58 4 -31 11 -70 17 -85 16 -42 131 -142 206 -179 76 -38 87 -58 43 -84 -39
-23 -43 -36 -26 -76 31 -74 127 -131 220 -132 60 0 115 23 115 48 0 6 5 18 10
26 9 12 17 8 48 -26 27 -30 59 -51 117 -74 77 -31 164 -72 195 -91 40 -24 72
-32 160 -36 52 -2 101 0 109 5 22 16 5 42 -28 42 -16 0 -63 7 -105 14 -61 12
-90 25 -153 67 -43 28 -91 64 -108 79 -16 16 -58 43 -93 61 -47 24 -83 55
-147 127 -47 52 -85 100 -85 106 0 7 -21 32 -46 56 -26 25 -61 68 -80 96 -18
29 -39 58 -47 65 -22 23 -127 165 -127 173 0 13 -57 90 -94 127 -21 21 -58 43
-87 53 -88 28 -149 19 -202 -32 l-27 -26 6 60 c5 51 2 69 -24 133 -25 62 -28
79 -20 110 15 54 100 135 184 175 52 25 85 50 127 96 52 58 59 62 88 56 73
-14 149 35 149 98 0 26 31 66 51 66 6 0 37 18 69 39 32 22 84 54 116 71 l59
32 120 -6 c188 -9 213 10 93 69 -82 40 -71 39 -163 14z m-900 -1621 c10 -35
35 -107 56 -162 22 -54 39 -106 39 -116 0 -13 -18 -25 -67 -43 -38 -14 -81
-28 -98 -32 -16 -4 -33 -12 -37 -18 -6 -9 -8 -9 -8 1 0 6 -11 12 -25 12 -27 0
-90 26 -117 49 -37 29 -14 81 79 186 25 27 68 82 96 122 27 40 53 70 57 68 4
-2 15 -32 25 -67z"/>
</g>
</svg>
